<svg fill="#000" height="10px" viewBox="0 0 64 64" width="10px" xmlns="http://www.w3.org/2000/svg"><g id="Layer_51" data-name="Layer 51"><path d="m39.9 28.05-1.79-16.13a8.994 8.994 0 0 0 7.89-8.92 1 1 0 0 0 -1-1h-26a1 1 0 0 0 -1 1 8.994 8.994 0 0 0 7.89 8.92l-1.79 16.13a9.006 9.006 0 0 0 -8.1 8.95v4a1 1 0 0 0 1 1h11.14l2.87 19.15a1 1 0 0 0 1.98 0l2.87-19.15h11.14a1 1 0 0 0 1-1v-4a9.006 9.006 0 0 0 -8.1-8.95zm-19.83-24.05h23.86a7.013 7.013 0 0 1 -6.93 6h-10a7.013 7.013 0 0 1 -6.93-6zm17.81 24h-11.76l1.78-16h8.2zm-5.88 26.26-1.84-12.26h3.68zm14-14.26h-28v-3a7.008 7.008 0 0 1 7-7h14a7.008 7.008 0 0 1 7 7z"/></g></svg>